<svg id="Layer_1" data-name="Layer 1" xmlns="http://www.w3.org/2000/svg" viewBox="0 0 122.17 53.4"><defs><style>.cls-1{fill:#fff;}.cls-2,.cls-3{fill:#cfae95;}.cls-2{fill-rule:evenodd;}</style></defs><path class="cls-1" d="M55.21,5.25h3.85v10h4.13v-10H67v24.5H63.19v-11H59.06v11H55.21Z" transform="translate(0 -3.34)"/><path class="cls-1" d="M72.89,5.25H78.1l4,24.5H78.24l-.7-4.87V25H73.17l-.7,4.8H68.9Zm4.2,16.38L75.37,9.52H75.3L73.62,21.63Z" transform="translate(0 -3.34)"/><path class="cls-1" d="M84,5.25H87.8v24.5H84Z" transform="translate(0 -3.34)"/><path class="cls-1" d="M90.67,5.25h5.7a5.89,5.89,0,0,1,4.34,1.38,5.84,5.84,0,0,1,1.37,4.25v1.51q0,3.81-2.52,4.83v.07a3,3,0,0,1,2,1.71,8.77,8.77,0,0,1,.57,3.47v4.3c0,.7,0,1.27.07,1.7a4.61,4.61,0,0,0,.35,1.28H98.61a5.91,5.91,0,0,1-.28-1.12,18.69,18.69,0,0,1-.07-1.89V22.26a3.85,3.85,0,0,0-.54-2.35,2.31,2.31,0,0,0-1.87-.66H94.52v10.5H90.67Zm5.25,10.5a2.29,2.29,0,0,0,1.73-.6,2.77,2.77,0,0,0,.58-2V11.27a3.16,3.16,0,0,0-.47-1.93,1.82,1.82,0,0,0-1.49-.59H94.52v7Z" transform="translate(0 -3.34)"/><path class="cls-1" d="M106,9h-1.26V5.25h3.71V8.57l-2.13,4.59h-1.79Z" transform="translate(0 -3.34)"/><path class="cls-1" d="M112.12,28.51a6.64,6.64,0,0,1-1.43-4.57v-1.4h3.64v1.68c0,1.59.66,2.38,2,2.38a1.86,1.86,0,0,0,1.49-.58,2.79,2.79,0,0,0,.51-1.87,5.23,5.23,0,0,0-.7-2.71A13.14,13.14,0,0,0,115,18.62a15.51,15.51,0,0,1-3.33-3.8,7.74,7.74,0,0,1-.94-3.83,6.39,6.39,0,0,1,1.47-4.5A5.52,5.52,0,0,1,116.5,4.9a5.32,5.32,0,0,1,4.18,1.59,6.69,6.69,0,0,1,1.42,4.57v1h-3.64V10.81A2.82,2.82,0,0,0,118,9a1.78,1.78,0,0,0-1.44-.58q-1.92,0-1.92,2.34a4.7,4.7,0,0,0,.71,2.49,13.88,13.88,0,0,0,2.61,2.8,14.55,14.55,0,0,1,3.33,3.81,8.59,8.59,0,0,1,.91,4,6.56,6.56,0,0,1-1.49,4.62,5.6,5.6,0,0,1-4.32,1.61A5.43,5.43,0,0,1,112.12,28.51Z" transform="translate(0 -3.34)"/><path class="cls-1" d="M56.74,53A3.47,3.47,0,0,1,56,50.55V43.41A3.45,3.45,0,0,1,56.74,41a3.48,3.48,0,0,1,4.58,0,3.4,3.4,0,0,1,.79,2.41v1.41h-2V43.28c0-.83-.34-1.24-1-1.24S58,42.45,58,43.28v7.43c0,.81.35,1.21,1.05,1.21s1-.4,1-1.21v-2h2v1.88A3.43,3.43,0,0,1,61.32,53a3.51,3.51,0,0,1-4.58,0Z" transform="translate(0 -3.34)"/><path class="cls-1" d="M75.33,40.33h3.1a2.67,2.67,0,0,1,3.1,3.06v.82c0,1.38-.46,2.25-1.37,2.62v0a1.59,1.59,0,0,1,1.07.93,4.64,4.64,0,0,1,.32,1.88V52a7.75,7.75,0,0,0,0,.92,2,2,0,0,0,.19.69H79.65A2.47,2.47,0,0,1,79.5,53a7.93,7.93,0,0,1,0-1V49.57a2.05,2.05,0,0,0-.3-1.28,1.23,1.23,0,0,0-1-.36h-.73v5.7H75.33ZM78.18,46a1.26,1.26,0,0,0,.94-.32,1.53,1.53,0,0,0,.32-1.08v-1a1.72,1.72,0,0,0-.26-1.05,1,1,0,0,0-.81-.32h-1V46Z" transform="translate(0 -3.34)"/><path class="cls-1" d="M95.63,53a3.46,3.46,0,0,1-.82-2.47v-7A3.44,3.44,0,0,1,95.63,41a3.59,3.59,0,0,1,4.71,0,3.48,3.48,0,0,1,.81,2.47v7a3.5,3.5,0,0,1-.81,2.47,3.62,3.62,0,0,1-4.71,0Zm3.44-2.34V43.35c0-.87-.37-1.31-1.09-1.31s-1.08.44-1.08,1.31v7.26c0,.87.36,1.31,1.08,1.31S99.07,51.48,99.07,50.61Z" transform="translate(0 -3.34)"/><path class="cls-1" d="M115,53a3.6,3.6,0,0,1-.78-2.48v-.76h2v.91q0,1.29,1.08,1.29a1,1,0,0,0,.81-.31,1.56,1.56,0,0,0,.27-1,2.73,2.73,0,0,0-.38-1.47,7.19,7.19,0,0,0-1.4-1.53,8.3,8.3,0,0,1-1.81-2.06,4.24,4.24,0,0,1-.51-2.08A3.42,3.42,0,0,1,115,41a3,3,0,0,1,2.31-.87,2.87,2.87,0,0,1,2.27.87,3.56,3.56,0,0,1,.77,2.48V44h-2v-.69a1.48,1.48,0,0,0-.27-1,1,1,0,0,0-.78-.32c-.69,0-1,.43-1,1.27a2.47,2.47,0,0,0,.39,1.35,7.32,7.32,0,0,0,1.41,1.52,7.76,7.76,0,0,1,1.81,2.07,4.62,4.62,0,0,1,.49,2.19,3.56,3.56,0,0,1-.81,2.51,3,3,0,0,1-2.34.87A3,3,0,0,1,115,53Z" transform="translate(0 -3.34)"/><path class="cls-2" d="M18.14,44.43a6.7,6.7,0,1,0,5.06-1,7.5,7.5,0,0,0-.81-.11l1.53-8.28L15.74,12.35l4.09,31.28A6.55,6.55,0,0,0,18.14,44.43Zm-.68,4.72a4.42,4.42,0,1,1,.61,3.34,4.43,4.43,0,0,1-.61-3.34Z" transform="translate(0 -3.34)"/><path class="cls-2" d="M18.94,3.7c1.6,6.07-4.52,11.9-10.18,15.9L6,17.19c2.1-1.91,4.1-3.33,6.1-5.11C15.74,8.81,17,7.9,18.94,3.7ZM7.77,20.29,5.05,18.07C1.83,21.18.17,23.33.15,27.27,3.34,24.29,4.16,22.88,7.77,20.29Z" transform="translate(0 -3.34)"/><path class="cls-2" d="M23.57,3.34c3,9.4-2.38,14.94-9.85,20.75-1.66-1.57-2.13-2-3.48-3.2C17.21,14.79,21.09,12.93,23.57,3.34ZM13.14,24.54c-1.77-1.34-2.27-1.73-3.73-2.91l-.91.82c-6.12,5.62-10.9,10-7.2,17.24.39-2.91,1-6.88,6.42-11C9.58,27.23,11.41,25.9,13.14,24.54Z" transform="translate(0 -3.34)"/><path class="cls-2" d="M27.09,8.45A16.3,16.3,0,0,1,27,18.34c-1.72,4.47-5.15,7.45-8.61,10.18L14.69,25l.74-.47C25.05,18.45,25.79,13.69,27.09,8.45Zm-8.7,20.07-4.2-3.18C7.09,29.93,2.82,33.81,3.26,41.56a15.9,15.9,0,0,0,8,12.32,40.94,40.94,0,0,1-2.88-10C7.57,36.32,13,32.72,18.39,28.52Z" transform="translate(0 -3.34)"/><path class="cls-2" d="M5.55,18.55,30.43,37.92a6.77,6.77,0,1,1-1.83,2.84,5.45,5.45,0,0,1,.3-.76L21,37.13ZM36.38,38.66A4.45,4.45,0,1,0,39,40.9,4.46,4.46,0,0,0,36.38,38.66Z" transform="translate(0 -3.34)"/><circle class="cls-3" cx="19.06" cy="28.2" r="1.04"/><path class="cls-2" d="M40.08,40.4a.81.81,0,0,0,0,1.6h2.82a.76.76,0,0,0,.68-.82.74.74,0,0,0-.7-.78H40.08Z" transform="translate(0 -3.34)"/></svg>